<svg xmlns="http://www.w3.org/2000/svg" width="272" height="54" viewBox="0 0 272 54" role="img" aria-labelledby="title desc">
  <title id="title">Support on Ko-fi</title>
  <desc id="desc">Support Pinkie's System Monitor on Ko-fi</desc>
  <defs>
    <linearGradient id="blue" x1="0" y1="0" x2="1" y2="1">
      <stop offset="0" stop-color="#8db7ff"/>
      <stop offset="1" stop-color="#508cde"/>
    </linearGradient>
  </defs>
  <rect x="1" y="1" width="270" height="52" rx="11" fill="url(#blue)" stroke="#4684ce" stroke-width="1.5"/>
  <circle cx="29" cy="27" r="16" fill="#ffffff" opacity="0.28"/>
  <path d="M19 20h17v11a8.5 8.5 0 0 1-17 0z" fill="#ffffff" stroke="#315985" stroke-width="1.3"/>
  <path d="M36 22h3a4.5 4.5 0 0 1 0 9h-3" fill="none" stroke="#ffffff" stroke-width="2.7"/>
  <path d="M22 25c2.6-3.5 5.8-.3 5.8-.3s3.2-3.2 5.7.3c1.8 2.8-5.7 7.2-5.7 7.2S20.2 27.8 22 25z" fill="#e64661"/>
  <text x="57" y="25" font-family="Segoe UI, Arial, sans-serif" font-size="18" font-weight="700" fill="#14233e">Support on Ko-fi</text>
  <text x="58" y="41" font-family="Segoe UI, Arial, sans-serif" font-size="12" font-weight="500" fill="#14233e">Buy the developer a coffee</text>
</svg>
